<mxfile host="app.diagrams.net" modified="2023-09-07T00:00:43.439Z" agent="Mozilla/5.0 (Macintosh; Intel Mac OS X 10_15_7) AppleWebKit/537.36 (KHTML, like Gecko) Chrome/116.0.0.0 Safari/537.36" etag="q7XUEBemx_IK1nSl5Lzy" version="21.7.2" type="device" pages="5">
  <diagram name="DCU-v1" id="PuUk3Px8iHBImMjK49Wq">
    <mxGraphModel dx="954" dy="610" grid="1" gridSize="10" guides="1" tooltips="1" connect="1" arrows="1" fold="1" page="1" pageScale="1" pageWidth="827" pageHeight="1169" math="0" shadow="0">
      <root>
        <mxCell id="0" />
        <mxCell id="1" parent="0" />
        <mxCell id="e3-i8aJ9vWM2mASeVPDL-12" value="Customer" style="shape=umlActor;verticalLabelPosition=bottom;verticalAlign=top;html=1;" parent="1" vertex="1">
          <mxGeometry x="590" y="490" width="30" height="60" as="geometry" />
        </mxCell>
        <mxCell id="e3-i8aJ9vWM2mASeVPDL-13" style="rounded=0;orthogonalLoop=1;jettySize=auto;html=1;entryX=0.5;entryY=0.5;entryDx=0;entryDy=0;entryPerimeter=0;endArrow=none;endFill=0;" parent="1" source="e3-i8aJ9vWM2mASeVPDL-14" target="e3-i8aJ9vWM2mASeVPDL-12" edge="1">
          <mxGeometry relative="1" as="geometry" />
        </mxCell>
        <mxCell id="e3-i8aJ9vWM2mASeVPDL-14" value="Introduzir pedidos de aluguel" style="ellipse;whiteSpace=wrap;html=1;" parent="1" vertex="1">
          <mxGeometry x="650" y="485" width="140" height="70" as="geometry" />
        </mxCell>
        <mxCell id="e3-i8aJ9vWM2mASeVPDL-15" value="Companies and Banks" style="shape=umlActor;verticalLabelPosition=bottom;verticalAlign=top;html=1;outlineConnect=0;" parent="1" vertex="1">
          <mxGeometry x="230" y="490" width="30" height="60" as="geometry" />
        </mxCell>
        <mxCell id="e3-i8aJ9vWM2mASeVPDL-16" value="Modificar pedidos" style="ellipse;whiteSpace=wrap;html=1;" parent="1" vertex="1">
          <mxGeometry x="5" y="485" width="140" height="70" as="geometry" />
        </mxCell>
        <mxCell id="e3-i8aJ9vWM2mASeVPDL-17" value="" style="endArrow=none;html=1;rounded=0;exitX=0.5;exitY=0.5;exitDx=0;exitDy=0;exitPerimeter=0;" parent="1" source="e3-i8aJ9vWM2mASeVPDL-15" target="e3-i8aJ9vWM2mASeVPDL-16" edge="1">
          <mxGeometry width="50" height="50" relative="1" as="geometry">
            <mxPoint x="794" y="998" as="sourcePoint" />
            <mxPoint x="881" y="972" as="targetPoint" />
          </mxGeometry>
        </mxCell>
        <mxCell id="e3-i8aJ9vWM2mASeVPDL-18" style="edgeStyle=orthogonalEdgeStyle;rounded=0;orthogonalLoop=1;jettySize=auto;html=1;exitX=0.5;exitY=0.5;exitDx=0;exitDy=0;exitPerimeter=0;endArrow=none;endFill=0;" parent="1" source="e3-i8aJ9vWM2mASeVPDL-22" target="e3-i8aJ9vWM2mASeVPDL-23" edge="1">
          <mxGeometry relative="1" as="geometry" />
        </mxCell>
        <mxCell id="e3-i8aJ9vWM2mASeVPDL-20" style="edgeStyle=orthogonalEdgeStyle;rounded=0;orthogonalLoop=1;jettySize=auto;html=1;endArrow=none;endFill=0;startArrow=block;startFill=0;startSize=10;sourcePerimeterSpacing=20;" parent="1" source="e3-i8aJ9vWM2mASeVPDL-22" edge="1">
          <mxGeometry relative="1" as="geometry">
            <mxPoint x="605" y="510" as="targetPoint" />
            <Array as="points">
              <mxPoint x="414" y="520" />
              <mxPoint x="605" y="520" />
            </Array>
          </mxGeometry>
        </mxCell>
        <mxCell id="e3-i8aJ9vWM2mASeVPDL-21" style="edgeStyle=orthogonalEdgeStyle;rounded=0;orthogonalLoop=1;jettySize=auto;html=1;entryX=0.5;entryY=0.21;entryDx=0;entryDy=0;entryPerimeter=0;endArrow=none;endFill=0;startArrow=block;startFill=0;startSize=10;sourcePerimeterSpacing=20;" parent="1" source="e3-i8aJ9vWM2mASeVPDL-22" target="e3-i8aJ9vWM2mASeVPDL-15" edge="1">
          <mxGeometry relative="1" as="geometry">
            <Array as="points">
              <mxPoint x="414" y="520" />
              <mxPoint x="245" y="520" />
            </Array>
          </mxGeometry>
        </mxCell>
        <mxCell id="e3-i8aJ9vWM2mASeVPDL-22" value="User" style="shape=umlActor;verticalLabelPosition=bottom;verticalAlign=top;html=1;" parent="1" vertex="1">
          <mxGeometry x="398.5" y="350" width="30" height="55" as="geometry" />
        </mxCell>
        <mxCell id="e3-i8aJ9vWM2mASeVPDL-23" value="Autenticar através do login" style="ellipse;whiteSpace=wrap;html=1;" parent="1" vertex="1">
          <mxGeometry x="480" y="310" width="160" height="80" as="geometry" />
        </mxCell>
        <mxCell id="e3-i8aJ9vWM2mASeVPDL-27" value="Cadastrar no sistema" style="ellipse;whiteSpace=wrap;html=1;" parent="1" vertex="1">
          <mxGeometry x="200" y="310" width="140" height="70" as="geometry" />
        </mxCell>
        <mxCell id="e3-i8aJ9vWM2mASeVPDL-28" style="edgeStyle=orthogonalEdgeStyle;rounded=0;orthogonalLoop=1;jettySize=auto;html=1;exitX=0.5;exitY=0.5;exitDx=0;exitDy=0;exitPerimeter=0;endArrow=none;endFill=0;" parent="1" source="e3-i8aJ9vWM2mASeVPDL-22" target="e3-i8aJ9vWM2mASeVPDL-27" edge="1">
          <mxGeometry relative="1" as="geometry">
            <mxPoint x="415" y="388" as="sourcePoint" />
            <mxPoint x="570" y="340" as="targetPoint" />
          </mxGeometry>
        </mxCell>
        <mxCell id="e3-i8aJ9vWM2mASeVPDL-37" style="edgeStyle=orthogonalEdgeStyle;rounded=0;orthogonalLoop=1;jettySize=auto;html=1;endArrow=none;endFill=0;endSize=10;startSize=10;" parent="1" source="e3-i8aJ9vWM2mASeVPDL-32" target="e3-i8aJ9vWM2mASeVPDL-12" edge="1">
          <mxGeometry relative="1" as="geometry">
            <Array as="points">
              <mxPoint x="640" y="605" />
              <mxPoint x="640" y="520" />
            </Array>
          </mxGeometry>
        </mxCell>
        <mxCell id="e3-i8aJ9vWM2mASeVPDL-32" value="Modificar pedidos de aluguel" style="ellipse;whiteSpace=wrap;html=1;" parent="1" vertex="1">
          <mxGeometry x="650" y="570" width="140" height="70" as="geometry" />
        </mxCell>
        <mxCell id="e3-i8aJ9vWM2mASeVPDL-36" style="edgeStyle=orthogonalEdgeStyle;rounded=0;orthogonalLoop=1;jettySize=auto;html=1;endArrow=none;endFill=0;startSize=10;endSize=10;" parent="1" source="e3-i8aJ9vWM2mASeVPDL-33" target="e3-i8aJ9vWM2mASeVPDL-12" edge="1">
          <mxGeometry relative="1" as="geometry">
            <Array as="points">
              <mxPoint x="640" y="695" />
              <mxPoint x="640" y="520" />
            </Array>
          </mxGeometry>
        </mxCell>
        <mxCell id="e3-i8aJ9vWM2mASeVPDL-33" value="Consultar pedidos de aluguel" style="ellipse;whiteSpace=wrap;html=1;" parent="1" vertex="1">
          <mxGeometry x="650" y="660" width="140" height="70" as="geometry" />
        </mxCell>
        <mxCell id="e3-i8aJ9vWM2mASeVPDL-35" style="edgeStyle=orthogonalEdgeStyle;rounded=0;orthogonalLoop=1;jettySize=auto;html=1;exitX=0;exitY=0.5;exitDx=0;exitDy=0;endArrow=none;endFill=0;endSize=10;startSize=10;" parent="1" source="e3-i8aJ9vWM2mASeVPDL-34" edge="1">
          <mxGeometry relative="1" as="geometry">
            <mxPoint x="605" y="520" as="targetPoint" />
            <Array as="points">
              <mxPoint x="640" y="785" />
              <mxPoint x="640" y="520" />
            </Array>
          </mxGeometry>
        </mxCell>
        <mxCell id="e3-i8aJ9vWM2mASeVPDL-34" value="Cancelar pedidos de aluguel" style="ellipse;whiteSpace=wrap;html=1;" parent="1" vertex="1">
          <mxGeometry x="650" y="750" width="140" height="70" as="geometry" />
        </mxCell>
        <mxCell id="e3-i8aJ9vWM2mASeVPDL-43" style="edgeStyle=orthogonalEdgeStyle;rounded=0;orthogonalLoop=1;jettySize=auto;html=1;endArrow=none;endFill=0;" parent="1" source="e3-i8aJ9vWM2mASeVPDL-38" target="e3-i8aJ9vWM2mASeVPDL-15" edge="1">
          <mxGeometry relative="1" as="geometry">
            <Array as="points">
              <mxPoint x="170" y="605" />
              <mxPoint x="170" y="520" />
            </Array>
          </mxGeometry>
        </mxCell>
        <mxCell id="e3-i8aJ9vWM2mASeVPDL-38" value="Avaliar pedidos" style="ellipse;whiteSpace=wrap;html=1;" parent="1" vertex="1">
          <mxGeometry x="5" y="570" width="140" height="70" as="geometry" />
        </mxCell>
        <mxCell id="e3-i8aJ9vWM2mASeVPDL-44" style="edgeStyle=orthogonalEdgeStyle;rounded=0;orthogonalLoop=1;jettySize=auto;html=1;endArrow=none;endFill=0;" parent="1" source="e3-i8aJ9vWM2mASeVPDL-39" target="e3-i8aJ9vWM2mASeVPDL-15" edge="1">
          <mxGeometry relative="1" as="geometry">
            <Array as="points">
              <mxPoint x="170" y="695" />
              <mxPoint x="170" y="520" />
            </Array>
          </mxGeometry>
        </mxCell>
        <mxCell id="e3-i8aJ9vWM2mASeVPDL-39" value="Acessar informações dos contratantes de aluguel" style="ellipse;whiteSpace=wrap;html=1;" parent="1" vertex="1">
          <mxGeometry y="655" width="150" height="80" as="geometry" />
        </mxCell>
        <mxCell id="e3-i8aJ9vWM2mASeVPDL-45" style="edgeStyle=orthogonalEdgeStyle;rounded=0;orthogonalLoop=1;jettySize=auto;html=1;endArrow=none;endFill=0;" parent="1" source="e3-i8aJ9vWM2mASeVPDL-40" target="e3-i8aJ9vWM2mASeVPDL-15" edge="1">
          <mxGeometry relative="1" as="geometry">
            <Array as="points">
              <mxPoint x="170" y="785" />
              <mxPoint x="170" y="520" />
            </Array>
          </mxGeometry>
        </mxCell>
        <mxCell id="e3-i8aJ9vWM2mASeVPDL-40" value="Definir os tipos de contrato" style="ellipse;whiteSpace=wrap;html=1;" parent="1" vertex="1">
          <mxGeometry y="745" width="150" height="80" as="geometry" />
        </mxCell>
        <mxCell id="e3-i8aJ9vWM2mASeVPDL-46" style="edgeStyle=orthogonalEdgeStyle;rounded=0;orthogonalLoop=1;jettySize=auto;html=1;endArrow=none;endFill=0;" parent="1" source="e3-i8aJ9vWM2mASeVPDL-41" target="e3-i8aJ9vWM2mASeVPDL-15" edge="1">
          <mxGeometry relative="1" as="geometry">
            <Array as="points">
              <mxPoint x="170" y="880" />
              <mxPoint x="170" y="520" />
            </Array>
          </mxGeometry>
        </mxCell>
        <mxCell id="e3-i8aJ9vWM2mASeVPDL-41" value="Conduzir a análise financeira dos pedidos de aluguel" style="ellipse;whiteSpace=wrap;html=1;" parent="1" vertex="1">
          <mxGeometry y="840" width="150" height="80" as="geometry" />
        </mxCell>
        <mxCell id="e3-i8aJ9vWM2mASeVPDL-47" style="edgeStyle=orthogonalEdgeStyle;rounded=0;orthogonalLoop=1;jettySize=auto;html=1;endArrow=none;endFill=0;" parent="1" source="e3-i8aJ9vWM2mASeVPDL-42" target="e3-i8aJ9vWM2mASeVPDL-15" edge="1">
          <mxGeometry relative="1" as="geometry">
            <Array as="points">
              <mxPoint x="170" y="980" />
              <mxPoint x="170" y="520" />
            </Array>
          </mxGeometry>
        </mxCell>
        <mxCell id="e3-i8aJ9vWM2mASeVPDL-42" value="Conceder contratos de crédito" style="ellipse;whiteSpace=wrap;html=1;" parent="1" vertex="1">
          <mxGeometry y="940" width="150" height="80" as="geometry" />
        </mxCell>
      </root>
    </mxGraphModel>
  </diagram>
  <diagram id="3QkVrapOqb1Wj1fFgF9l" name="Classe-v1">
    <mxGraphModel dx="954" dy="610" grid="1" gridSize="10" guides="1" tooltips="1" connect="1" arrows="1" fold="1" page="1" pageScale="1" pageWidth="827" pageHeight="1169" math="0" shadow="0">
      <root>
        <mxCell id="0" />
        <mxCell id="1" parent="0" />
      </root>
    </mxGraphModel>
  </diagram>
  <diagram id="0UVISJXXg_RbUOwi_DtK" name="Pacote-v1">
    <mxGraphModel dx="1193" dy="763" grid="1" gridSize="10" guides="1" tooltips="1" connect="1" arrows="1" fold="1" page="1" pageScale="1" pageWidth="827" pageHeight="1169" math="0" shadow="0">
      <root>
        <mxCell id="0" />
        <mxCell id="1" parent="0" />
        <mxCell id="tO6OiS4Cmi07xufjR7gt-7" style="edgeStyle=orthogonalEdgeStyle;rounded=0;orthogonalLoop=1;jettySize=auto;html=1;endSize=10;startSize=10;dashed=1;" parent="1" source="tO6OiS4Cmi07xufjR7gt-1" target="tO6OiS4Cmi07xufjR7gt-3" edge="1">
          <mxGeometry relative="1" as="geometry" />
        </mxCell>
        <mxCell id="tO6OiS4Cmi07xufjR7gt-19" style="rounded=0;orthogonalLoop=1;jettySize=auto;html=1;endSize=10;startSize=10;dashed=1;" parent="1" source="tO6OiS4Cmi07xufjR7gt-1" target="tO6OiS4Cmi07xufjR7gt-17" edge="1">
          <mxGeometry relative="1" as="geometry" />
        </mxCell>
        <mxCell id="tO6OiS4Cmi07xufjR7gt-1" value="&amp;lt;&amp;lt;Layer&amp;gt;&amp;gt;&lt;br&gt;User Interface&lt;br&gt;Companies and Banks" style="shape=folder;fontStyle=1;spacingTop=10;tabWidth=40;tabHeight=14;tabPosition=left;html=1;whiteSpace=wrap;" parent="1" vertex="1">
          <mxGeometry x="30" y="220" width="190" height="120" as="geometry" />
        </mxCell>
        <mxCell id="tO6OiS4Cmi07xufjR7gt-8" style="edgeStyle=orthogonalEdgeStyle;rounded=0;orthogonalLoop=1;jettySize=auto;html=1;endSize=10;startSize=10;dashed=1;" parent="1" source="tO6OiS4Cmi07xufjR7gt-3" target="tO6OiS4Cmi07xufjR7gt-4" edge="1">
          <mxGeometry relative="1" as="geometry" />
        </mxCell>
        <mxCell id="tO6OiS4Cmi07xufjR7gt-20" style="rounded=0;orthogonalLoop=1;jettySize=auto;html=1;endSize=10;startSize=10;dashed=1;" parent="1" source="tO6OiS4Cmi07xufjR7gt-3" target="tO6OiS4Cmi07xufjR7gt-17" edge="1">
          <mxGeometry relative="1" as="geometry" />
        </mxCell>
        <mxCell id="tO6OiS4Cmi07xufjR7gt-3" value="&amp;lt;&amp;lt;Layer&amp;gt;&amp;gt;&lt;br&gt;Business Logic&lt;br&gt;Companies and Banks" style="shape=folder;fontStyle=1;spacingTop=10;tabWidth=40;tabHeight=14;tabPosition=left;html=1;whiteSpace=wrap;" parent="1" vertex="1">
          <mxGeometry x="30" y="380" width="190" height="120" as="geometry" />
        </mxCell>
        <mxCell id="tO6OiS4Cmi07xufjR7gt-10" style="edgeStyle=orthogonalEdgeStyle;rounded=0;orthogonalLoop=1;jettySize=auto;html=1;dashed=1;endSize=10;startSize=10;" parent="1" source="tO6OiS4Cmi07xufjR7gt-4" target="tO6OiS4Cmi07xufjR7gt-6" edge="1">
          <mxGeometry relative="1" as="geometry">
            <Array as="points">
              <mxPoint x="125" y="830" />
              <mxPoint x="400" y="830" />
            </Array>
          </mxGeometry>
        </mxCell>
        <mxCell id="tO6OiS4Cmi07xufjR7gt-21" style="rounded=0;orthogonalLoop=1;jettySize=auto;html=1;endSize=10;startSize=10;dashed=1;" parent="1" source="tO6OiS4Cmi07xufjR7gt-4" target="tO6OiS4Cmi07xufjR7gt-17" edge="1">
          <mxGeometry relative="1" as="geometry" />
        </mxCell>
        <mxCell id="tO6OiS4Cmi07xufjR7gt-4" value="&amp;lt;&amp;lt;Layer&amp;gt;&amp;gt;&lt;br&gt;Interaction Database&lt;br&gt;Companies and Banks" style="shape=folder;fontStyle=1;spacingTop=10;tabWidth=40;tabHeight=14;tabPosition=left;html=1;whiteSpace=wrap;" parent="1" vertex="1">
          <mxGeometry x="30" y="570" width="190" height="120" as="geometry" />
        </mxCell>
        <mxCell id="0xs6b5CXg0_vCsp4xNmn-1" style="edgeStyle=none;html=1;endSize=10;startSize=10;dashed=1;startArrow=classic;startFill=1;" parent="1" source="tO6OiS4Cmi07xufjR7gt-6" target="tO6OiS4Cmi07xufjR7gt-18" edge="1">
          <mxGeometry relative="1" as="geometry" />
        </mxCell>
        <mxCell id="0xs6b5CXg0_vCsp4xNmn-2" style="edgeStyle=none;html=1;startArrow=classic;startFill=1;endSize=10;startSize=10;dashed=1;" parent="1" source="tO6OiS4Cmi07xufjR7gt-6" target="tO6OiS4Cmi07xufjR7gt-17" edge="1">
          <mxGeometry relative="1" as="geometry">
            <Array as="points">
              <mxPoint x="270" y="640" />
            </Array>
          </mxGeometry>
        </mxCell>
        <mxCell id="tO6OiS4Cmi07xufjR7gt-6" value="Database" style="shape=folder;fontStyle=1;spacingTop=10;tabWidth=40;tabHeight=14;tabPosition=left;html=1;whiteSpace=wrap;" parent="1" vertex="1">
          <mxGeometry x="319" y="970" width="190" height="120" as="geometry" />
        </mxCell>
        <mxCell id="tO6OiS4Cmi07xufjR7gt-11" style="edgeStyle=orthogonalEdgeStyle;rounded=0;orthogonalLoop=1;jettySize=auto;html=1;endSize=10;startSize=10;dashed=1;" parent="1" source="tO6OiS4Cmi07xufjR7gt-12" target="tO6OiS4Cmi07xufjR7gt-14" edge="1">
          <mxGeometry relative="1" as="geometry" />
        </mxCell>
        <mxCell id="tO6OiS4Cmi07xufjR7gt-23" style="rounded=0;orthogonalLoop=1;jettySize=auto;html=1;endSize=10;startSize=10;dashed=1;" parent="1" source="tO6OiS4Cmi07xufjR7gt-12" target="tO6OiS4Cmi07xufjR7gt-18" edge="1">
          <mxGeometry relative="1" as="geometry" />
        </mxCell>
        <mxCell id="tO6OiS4Cmi07xufjR7gt-12" value="&amp;lt;&amp;lt;Layer&amp;gt;&amp;gt;&lt;br&gt;User Interface&lt;br&gt;Customer" style="shape=folder;fontStyle=1;spacingTop=10;tabWidth=40;tabHeight=14;tabPosition=left;html=1;whiteSpace=wrap;" parent="1" vertex="1">
          <mxGeometry x="610" y="220" width="190" height="120" as="geometry" />
        </mxCell>
        <mxCell id="tO6OiS4Cmi07xufjR7gt-13" style="edgeStyle=orthogonalEdgeStyle;rounded=0;orthogonalLoop=1;jettySize=auto;html=1;startSize=10;endSize=10;dashed=1;" parent="1" source="tO6OiS4Cmi07xufjR7gt-14" target="tO6OiS4Cmi07xufjR7gt-15" edge="1">
          <mxGeometry relative="1" as="geometry" />
        </mxCell>
        <mxCell id="tO6OiS4Cmi07xufjR7gt-24" style="rounded=0;orthogonalLoop=1;jettySize=auto;html=1;endSize=10;startSize=10;dashed=1;" parent="1" source="tO6OiS4Cmi07xufjR7gt-14" target="tO6OiS4Cmi07xufjR7gt-18" edge="1">
          <mxGeometry relative="1" as="geometry" />
        </mxCell>
        <mxCell id="tO6OiS4Cmi07xufjR7gt-14" value="&amp;lt;&amp;lt;Layer&amp;gt;&amp;gt;&lt;br&gt;Business Logic&lt;br&gt;Customer" style="shape=folder;fontStyle=1;spacingTop=10;tabWidth=40;tabHeight=14;tabPosition=left;html=1;whiteSpace=wrap;" parent="1" vertex="1">
          <mxGeometry x="610" y="410" width="190" height="120" as="geometry" />
        </mxCell>
        <mxCell id="tO6OiS4Cmi07xufjR7gt-16" style="edgeStyle=orthogonalEdgeStyle;rounded=0;orthogonalLoop=1;jettySize=auto;html=1;endSize=10;startSize=10;dashed=1;" parent="1" source="tO6OiS4Cmi07xufjR7gt-15" target="tO6OiS4Cmi07xufjR7gt-6" edge="1">
          <mxGeometry relative="1" as="geometry">
            <Array as="points">
              <mxPoint x="705" y="830" />
              <mxPoint x="430" y="830" />
            </Array>
          </mxGeometry>
        </mxCell>
        <mxCell id="tO6OiS4Cmi07xufjR7gt-25" style="rounded=0;orthogonalLoop=1;jettySize=auto;html=1;endSize=10;startSize=10;dashed=1;" parent="1" source="tO6OiS4Cmi07xufjR7gt-15" target="tO6OiS4Cmi07xufjR7gt-18" edge="1">
          <mxGeometry relative="1" as="geometry" />
        </mxCell>
        <mxCell id="tO6OiS4Cmi07xufjR7gt-15" value="&amp;lt;&amp;lt;Layer&amp;gt;&amp;gt;&lt;br&gt;Interaction Database&lt;br&gt;Customer" style="shape=folder;fontStyle=1;spacingTop=10;tabWidth=40;tabHeight=14;tabPosition=left;html=1;whiteSpace=wrap;" parent="1" vertex="1">
          <mxGeometry x="610" y="570" width="190" height="120" as="geometry" />
        </mxCell>
        <mxCell id="tO6OiS4Cmi07xufjR7gt-17" value="&amp;lt;&amp;lt;Layer&amp;gt;&amp;gt;&lt;br&gt;Entity&lt;br&gt;Companies and Banks" style="shape=folder;fontStyle=1;spacingTop=10;tabWidth=40;tabHeight=14;tabPosition=left;html=1;whiteSpace=wrap;" parent="1" vertex="1">
          <mxGeometry x="319" y="220" width="190" height="120" as="geometry" />
        </mxCell>
        <mxCell id="tO6OiS4Cmi07xufjR7gt-18" value="&amp;lt;&amp;lt;Layer&amp;gt;&amp;gt;&lt;br&gt;Entity&lt;br&gt;Customer" style="shape=folder;fontStyle=1;spacingTop=10;tabWidth=40;tabHeight=14;tabPosition=left;html=1;whiteSpace=wrap;" parent="1" vertex="1">
          <mxGeometry x="319" y="570" width="190" height="120" as="geometry" />
        </mxCell>
        <mxCell id="y4RknXcXqvqI0yn9Ukre-1" value="Databases" style="shape=folder;fontStyle=1;tabWidth=110;tabHeight=30;tabPosition=left;html=1;boundedLbl=1;labelInHeader=1;container=1;collapsible=0;recursiveResize=0;whiteSpace=wrap;" vertex="1" parent="1">
          <mxGeometry x="140" y="1130" width="430" height="260" as="geometry" />
        </mxCell>
      </root>
    </mxGraphModel>
  </diagram>
  <diagram name="Pacote-v2" id="fJTH7_DLknmoTyYF8Y-j">
    <mxGraphModel dx="1122" dy="718" grid="1" gridSize="10" guides="1" tooltips="1" connect="1" arrows="1" fold="1" page="1" pageScale="1" pageWidth="827" pageHeight="1169" math="0" shadow="0">
      <root>
        <mxCell id="zXMlyNGOBhFAlq6eK1tR-0" />
        <mxCell id="zXMlyNGOBhFAlq6eK1tR-1" parent="zXMlyNGOBhFAlq6eK1tR-0" />
        <mxCell id="zXMlyNGOBhFAlq6eK1tR-25" value="DatabasesLayer" style="shape=folder;fontStyle=1;tabWidth=110;tabHeight=30;tabPosition=left;html=1;boundedLbl=1;labelInHeader=1;container=1;collapsible=0;recursiveResize=0;whiteSpace=wrap;" vertex="1" parent="zXMlyNGOBhFAlq6eK1tR-1">
          <mxGeometry x="184" y="960" width="460" height="220" as="geometry" />
        </mxCell>
        <mxCell id="dkxjiQC5v_sDcA-FJ99E-1" value="Interaction Database&lt;br&gt;Companies and Banks" style="shape=folder;fontStyle=1;spacingTop=10;tabWidth=40;tabHeight=14;tabPosition=left;html=1;whiteSpace=wrap;" vertex="1" parent="zXMlyNGOBhFAlq6eK1tR-25">
          <mxGeometry x="20" y="70" width="190" height="120" as="geometry" />
        </mxCell>
        <mxCell id="dkxjiQC5v_sDcA-FJ99E-2" value="Interaction Database&lt;br&gt;Customer" style="shape=folder;fontStyle=1;spacingTop=10;tabWidth=40;tabHeight=14;tabPosition=left;html=1;whiteSpace=wrap;" vertex="1" parent="zXMlyNGOBhFAlq6eK1tR-25">
          <mxGeometry x="240" y="70" width="190" height="120" as="geometry" />
        </mxCell>
        <mxCell id="dkxjiQC5v_sDcA-FJ99E-11" style="edgeStyle=orthogonalEdgeStyle;rounded=0;orthogonalLoop=1;jettySize=auto;html=1;endSize=10;startSize=10;dashed=1;endArrow=classic;endFill=1;" edge="1" parent="zXMlyNGOBhFAlq6eK1tR-1" source="dkxjiQC5v_sDcA-FJ99E-3" target="zXMlyNGOBhFAlq6eK1tR-25">
          <mxGeometry relative="1" as="geometry" />
        </mxCell>
        <mxCell id="dkxjiQC5v_sDcA-FJ99E-3" value="BusinessLayer" style="shape=folder;fontStyle=1;tabWidth=110;tabHeight=30;tabPosition=left;html=1;boundedLbl=1;labelInHeader=1;container=1;collapsible=0;recursiveResize=0;whiteSpace=wrap;" vertex="1" parent="zXMlyNGOBhFAlq6eK1tR-1">
          <mxGeometry x="184" y="630" width="460" height="220" as="geometry" />
        </mxCell>
        <mxCell id="zXMlyNGOBhFAlq6eK1tR-7" value="Business Logic&lt;br&gt;Companies and Banks" style="shape=folder;fontStyle=1;spacingTop=10;tabWidth=40;tabHeight=14;tabPosition=left;html=1;whiteSpace=wrap;" vertex="1" parent="dkxjiQC5v_sDcA-FJ99E-3">
          <mxGeometry x="30" y="70" width="190" height="120" as="geometry" />
        </mxCell>
        <mxCell id="zXMlyNGOBhFAlq6eK1tR-19" value="Business Logic&lt;br&gt;Customer" style="shape=folder;fontStyle=1;spacingTop=10;tabWidth=40;tabHeight=14;tabPosition=left;html=1;whiteSpace=wrap;" vertex="1" parent="dkxjiQC5v_sDcA-FJ99E-3">
          <mxGeometry x="246" y="70" width="190" height="120" as="geometry" />
        </mxCell>
        <mxCell id="dkxjiQC5v_sDcA-FJ99E-10" style="edgeStyle=orthogonalEdgeStyle;rounded=0;orthogonalLoop=1;jettySize=auto;html=1;dashed=1;endSize=10;startSize=10;" edge="1" parent="zXMlyNGOBhFAlq6eK1tR-1" source="dkxjiQC5v_sDcA-FJ99E-7" target="dkxjiQC5v_sDcA-FJ99E-3">
          <mxGeometry relative="1" as="geometry" />
        </mxCell>
        <mxCell id="dkxjiQC5v_sDcA-FJ99E-7" value="ViewLayer" style="shape=folder;fontStyle=1;tabWidth=110;tabHeight=30;tabPosition=left;html=1;boundedLbl=1;labelInHeader=1;container=1;collapsible=0;recursiveResize=0;whiteSpace=wrap;" vertex="1" parent="zXMlyNGOBhFAlq6eK1tR-1">
          <mxGeometry x="184" y="320" width="460" height="220" as="geometry" />
        </mxCell>
        <mxCell id="zXMlyNGOBhFAlq6eK1tR-4" value="User Interface&lt;br&gt;Companies and Banks" style="shape=folder;fontStyle=1;spacingTop=10;tabWidth=40;tabHeight=14;tabPosition=left;html=1;whiteSpace=wrap;" vertex="1" parent="dkxjiQC5v_sDcA-FJ99E-7">
          <mxGeometry x="20" y="60" width="190" height="120" as="geometry" />
        </mxCell>
        <mxCell id="zXMlyNGOBhFAlq6eK1tR-16" value="User Interface&lt;br&gt;Customer" style="shape=folder;fontStyle=1;spacingTop=10;tabWidth=40;tabHeight=14;tabPosition=left;html=1;whiteSpace=wrap;" vertex="1" parent="dkxjiQC5v_sDcA-FJ99E-7">
          <mxGeometry x="246" y="60" width="190" height="120" as="geometry" />
        </mxCell>
      </root>
    </mxGraphModel>
  </diagram>
  <diagram id="ZG8K5zP2StTZaWJOU6Mm" name="Página-4">
    <mxGraphModel dx="1781" dy="610" grid="1" gridSize="10" guides="1" tooltips="1" connect="1" arrows="1" fold="1" page="1" pageScale="1" pageWidth="827" pageHeight="1169" math="0" shadow="0">
      <root>
        <mxCell id="0" />
        <mxCell id="1" parent="0" />
        <mxCell id="1fhyDpQy3v9vwqma14g9-66" style="edgeStyle=orthogonalEdgeStyle;rounded=0;orthogonalLoop=1;jettySize=auto;html=1;" parent="1" source="1fhyDpQy3v9vwqma14g9-1" target="1fhyDpQy3v9vwqma14g9-33" edge="1">
          <mxGeometry relative="1" as="geometry" />
        </mxCell>
        <mxCell id="1fhyDpQy3v9vwqma14g9-1" value="«Annotation»&lt;br&gt;&lt;b&gt;Exames&lt;/b&gt;" style="html=1;dropTarget=0;whiteSpace=wrap;" parent="1" vertex="1">
          <mxGeometry x="-30" y="200" width="180" height="90" as="geometry" />
        </mxCell>
        <mxCell id="1fhyDpQy3v9vwqma14g9-2" value="" style="shape=module;jettyWidth=8;jettyHeight=4;" parent="1fhyDpQy3v9vwqma14g9-1" vertex="1">
          <mxGeometry x="1" width="20" height="20" relative="1" as="geometry">
            <mxPoint x="-27" y="7" as="offset" />
          </mxGeometry>
        </mxCell>
        <mxCell id="1fhyDpQy3v9vwqma14g9-67" style="edgeStyle=orthogonalEdgeStyle;rounded=0;orthogonalLoop=1;jettySize=auto;html=1;" parent="1" source="1fhyDpQy3v9vwqma14g9-3" target="1fhyDpQy3v9vwqma14g9-33" edge="1">
          <mxGeometry relative="1" as="geometry" />
        </mxCell>
        <mxCell id="1fhyDpQy3v9vwqma14g9-3" value="«Annotation»&lt;br&gt;&lt;b&gt;Procedimentos&lt;br&gt;&lt;/b&gt;" style="html=1;dropTarget=0;whiteSpace=wrap;" parent="1" vertex="1">
          <mxGeometry x="-30" y="310" width="180" height="90" as="geometry" />
        </mxCell>
        <mxCell id="1fhyDpQy3v9vwqma14g9-4" value="" style="shape=module;jettyWidth=8;jettyHeight=4;" parent="1fhyDpQy3v9vwqma14g9-3" vertex="1">
          <mxGeometry x="1" width="20" height="20" relative="1" as="geometry">
            <mxPoint x="-27" y="7" as="offset" />
          </mxGeometry>
        </mxCell>
        <mxCell id="1fhyDpQy3v9vwqma14g9-68" style="edgeStyle=orthogonalEdgeStyle;rounded=0;orthogonalLoop=1;jettySize=auto;html=1;" parent="1" source="1fhyDpQy3v9vwqma14g9-5" target="1fhyDpQy3v9vwqma14g9-33" edge="1">
          <mxGeometry relative="1" as="geometry" />
        </mxCell>
        <mxCell id="1fhyDpQy3v9vwqma14g9-5" value="«Annotation»&lt;br&gt;&lt;b&gt;Paciente&lt;br&gt;&lt;/b&gt;" style="html=1;dropTarget=0;whiteSpace=wrap;" parent="1" vertex="1">
          <mxGeometry x="-30" y="420" width="180" height="90" as="geometry" />
        </mxCell>
        <mxCell id="1fhyDpQy3v9vwqma14g9-6" value="" style="shape=module;jettyWidth=8;jettyHeight=4;" parent="1fhyDpQy3v9vwqma14g9-5" vertex="1">
          <mxGeometry x="1" width="20" height="20" relative="1" as="geometry">
            <mxPoint x="-27" y="7" as="offset" />
          </mxGeometry>
        </mxCell>
        <mxCell id="1fhyDpQy3v9vwqma14g9-69" style="edgeStyle=orthogonalEdgeStyle;rounded=0;orthogonalLoop=1;jettySize=auto;html=1;" parent="1" source="1fhyDpQy3v9vwqma14g9-7" target="1fhyDpQy3v9vwqma14g9-33" edge="1">
          <mxGeometry relative="1" as="geometry" />
        </mxCell>
        <mxCell id="1fhyDpQy3v9vwqma14g9-7" value="«Annotation»&lt;br&gt;&lt;b&gt;Despesas&lt;br&gt;&lt;/b&gt;" style="html=1;dropTarget=0;whiteSpace=wrap;" parent="1" vertex="1">
          <mxGeometry x="-30" y="540" width="180" height="90" as="geometry" />
        </mxCell>
        <mxCell id="1fhyDpQy3v9vwqma14g9-8" value="" style="shape=module;jettyWidth=8;jettyHeight=4;" parent="1fhyDpQy3v9vwqma14g9-7" vertex="1">
          <mxGeometry x="1" width="20" height="20" relative="1" as="geometry">
            <mxPoint x="-27" y="7" as="offset" />
          </mxGeometry>
        </mxCell>
        <mxCell id="1fhyDpQy3v9vwqma14g9-70" style="edgeStyle=orthogonalEdgeStyle;rounded=0;orthogonalLoop=1;jettySize=auto;html=1;" parent="1" source="1fhyDpQy3v9vwqma14g9-9" target="1fhyDpQy3v9vwqma14g9-33" edge="1">
          <mxGeometry relative="1" as="geometry" />
        </mxCell>
        <mxCell id="1fhyDpQy3v9vwqma14g9-9" value="«Annotation»&lt;br&gt;&lt;b&gt;Hotelaria&lt;br&gt;&lt;/b&gt;" style="html=1;dropTarget=0;whiteSpace=wrap;" parent="1" vertex="1">
          <mxGeometry x="-30" y="650" width="180" height="90" as="geometry" />
        </mxCell>
        <mxCell id="1fhyDpQy3v9vwqma14g9-10" value="" style="shape=module;jettyWidth=8;jettyHeight=4;" parent="1fhyDpQy3v9vwqma14g9-9" vertex="1">
          <mxGeometry x="1" width="20" height="20" relative="1" as="geometry">
            <mxPoint x="-27" y="7" as="offset" />
          </mxGeometry>
        </mxCell>
        <mxCell id="1fhyDpQy3v9vwqma14g9-71" style="edgeStyle=orthogonalEdgeStyle;rounded=0;orthogonalLoop=1;jettySize=auto;html=1;" parent="1" source="1fhyDpQy3v9vwqma14g9-11" target="1fhyDpQy3v9vwqma14g9-33" edge="1">
          <mxGeometry relative="1" as="geometry" />
        </mxCell>
        <mxCell id="1fhyDpQy3v9vwqma14g9-11" value="«Annotation»&lt;br&gt;&lt;b&gt;Materiais&lt;br&gt;&lt;/b&gt;" style="html=1;dropTarget=0;whiteSpace=wrap;" parent="1" vertex="1">
          <mxGeometry x="-30" y="760" width="180" height="90" as="geometry" />
        </mxCell>
        <mxCell id="1fhyDpQy3v9vwqma14g9-12" value="" style="shape=module;jettyWidth=8;jettyHeight=4;" parent="1fhyDpQy3v9vwqma14g9-11" vertex="1">
          <mxGeometry x="1" width="20" height="20" relative="1" as="geometry">
            <mxPoint x="-27" y="7" as="offset" />
          </mxGeometry>
        </mxCell>
        <mxCell id="1fhyDpQy3v9vwqma14g9-13" value="«global»&lt;br&gt;&lt;b&gt;API Server&lt;br&gt;&lt;/b&gt;" style="html=1;dropTarget=0;whiteSpace=wrap;" parent="1" vertex="1">
          <mxGeometry x="610" y="494" width="180" height="90" as="geometry" />
        </mxCell>
        <mxCell id="1fhyDpQy3v9vwqma14g9-14" value="" style="shape=module;jettyWidth=8;jettyHeight=4;" parent="1fhyDpQy3v9vwqma14g9-13" vertex="1">
          <mxGeometry x="1" width="20" height="20" relative="1" as="geometry">
            <mxPoint x="-27" y="7" as="offset" />
          </mxGeometry>
        </mxCell>
        <mxCell id="1fhyDpQy3v9vwqma14g9-16" value="&lt;b&gt;WEB Server&lt;br&gt;&lt;/b&gt;" style="html=1;dropTarget=0;whiteSpace=wrap;" parent="1" vertex="1">
          <mxGeometry x="1040" y="495" width="180" height="90" as="geometry" />
        </mxCell>
        <mxCell id="1fhyDpQy3v9vwqma14g9-17" value="" style="shape=module;jettyWidth=8;jettyHeight=4;" parent="1fhyDpQy3v9vwqma14g9-16" vertex="1">
          <mxGeometry x="1" width="20" height="20" relative="1" as="geometry">
            <mxPoint x="-27" y="7" as="offset" />
          </mxGeometry>
        </mxCell>
        <mxCell id="1fhyDpQy3v9vwqma14g9-26" style="edgeStyle=orthogonalEdgeStyle;rounded=0;orthogonalLoop=1;jettySize=auto;html=1;entryX=1;entryY=0.5;entryDx=0;entryDy=0;" parent="1" source="1fhyDpQy3v9vwqma14g9-23" target="1fhyDpQy3v9vwqma14g9-13" edge="1">
          <mxGeometry relative="1" as="geometry" />
        </mxCell>
        <mxCell id="1fhyDpQy3v9vwqma14g9-23" value="" style="html=1;rounded=0;" parent="1" vertex="1">
          <mxGeometry x="830" y="524" width="40" height="30" as="geometry" />
        </mxCell>
        <mxCell id="1fhyDpQy3v9vwqma14g9-24" value="" style="endArrow=none;html=1;rounded=0;align=center;verticalAlign=top;endFill=0;labelBackgroundColor=none;endSize=2;" parent="1" source="1fhyDpQy3v9vwqma14g9-23" target="1fhyDpQy3v9vwqma14g9-25" edge="1">
          <mxGeometry relative="1" as="geometry" />
        </mxCell>
        <mxCell id="1fhyDpQy3v9vwqma14g9-25" value="" style="shape=requiredInterface;html=1;fontSize=11;align=center;fillColor=none;points=[];aspect=fixed;resizable=0;verticalAlign=bottom;labelPosition=center;verticalLabelPosition=top;flipH=1;" parent="1" vertex="1">
          <mxGeometry x="895" y="534" width="5" height="10" as="geometry" />
        </mxCell>
        <mxCell id="1fhyDpQy3v9vwqma14g9-30" style="edgeStyle=orthogonalEdgeStyle;rounded=0;orthogonalLoop=1;jettySize=auto;html=1;entryX=0;entryY=0.5;entryDx=0;entryDy=0;" parent="1" source="1fhyDpQy3v9vwqma14g9-27" target="1fhyDpQy3v9vwqma14g9-16" edge="1">
          <mxGeometry relative="1" as="geometry" />
        </mxCell>
        <mxCell id="1fhyDpQy3v9vwqma14g9-27" value="" style="html=1;rounded=0;" parent="1" vertex="1">
          <mxGeometry x="950" y="525" width="40" height="30" as="geometry" />
        </mxCell>
        <mxCell id="1fhyDpQy3v9vwqma14g9-28" value="" style="endArrow=none;html=1;rounded=0;align=center;verticalAlign=top;endFill=0;labelBackgroundColor=none;endSize=2;" parent="1" source="1fhyDpQy3v9vwqma14g9-27" target="1fhyDpQy3v9vwqma14g9-29" edge="1">
          <mxGeometry relative="1" as="geometry" />
        </mxCell>
        <mxCell id="1fhyDpQy3v9vwqma14g9-29" value="" style="ellipse;html=1;fontSize=11;align=center;fillColor=none;points=[];aspect=fixed;resizable=0;verticalAlign=bottom;labelPosition=center;verticalLabelPosition=top;flipH=1;" parent="1" vertex="1">
          <mxGeometry x="910" y="536" width="8" height="8" as="geometry" />
        </mxCell>
        <mxCell id="1fhyDpQy3v9vwqma14g9-33" value="" style="html=1;rounded=0;" parent="1" vertex="1">
          <mxGeometry x="374" y="380" width="40" height="320" as="geometry" />
        </mxCell>
        <mxCell id="1fhyDpQy3v9vwqma14g9-34" value="" style="endArrow=none;html=1;rounded=0;align=center;verticalAlign=top;endFill=0;labelBackgroundColor=none;endSize=2;entryX=1.007;entryY=0.598;entryDx=0;entryDy=0;entryPerimeter=0;" parent="1" source="1fhyDpQy3v9vwqma14g9-33" target="1fhyDpQy3v9vwqma14g9-35" edge="1">
          <mxGeometry relative="1" as="geometry" />
        </mxCell>
        <mxCell id="1fhyDpQy3v9vwqma14g9-35" value="" style="shape=requiredInterface;html=1;fontSize=11;align=center;fillColor=none;points=[];aspect=fixed;resizable=0;verticalAlign=bottom;labelPosition=center;verticalLabelPosition=top;flipH=1;" parent="1" vertex="1">
          <mxGeometry x="445" y="533.5" width="5" height="10" as="geometry" />
        </mxCell>
        <mxCell id="1fhyDpQy3v9vwqma14g9-39" style="edgeStyle=orthogonalEdgeStyle;rounded=0;orthogonalLoop=1;jettySize=auto;html=1;" parent="1" source="1fhyDpQy3v9vwqma14g9-36" target="1fhyDpQy3v9vwqma14g9-13" edge="1">
          <mxGeometry relative="1" as="geometry" />
        </mxCell>
        <mxCell id="1fhyDpQy3v9vwqma14g9-36" value="" style="html=1;rounded=0;" parent="1" vertex="1">
          <mxGeometry x="500" y="524.5" width="40" height="30" as="geometry" />
        </mxCell>
        <mxCell id="1fhyDpQy3v9vwqma14g9-37" value="" style="endArrow=none;html=1;rounded=0;align=center;verticalAlign=top;endFill=0;labelBackgroundColor=none;endSize=2;" parent="1" source="1fhyDpQy3v9vwqma14g9-36" target="1fhyDpQy3v9vwqma14g9-38" edge="1">
          <mxGeometry relative="1" as="geometry" />
        </mxCell>
        <mxCell id="1fhyDpQy3v9vwqma14g9-38" value="" style="ellipse;html=1;fontSize=11;align=center;fillColor=none;points=[];aspect=fixed;resizable=0;verticalAlign=bottom;labelPosition=center;verticalLabelPosition=top;flipH=1;" parent="1" vertex="1">
          <mxGeometry x="460" y="535.5" width="8" height="8" as="geometry" />
        </mxCell>
        <mxCell id="1fhyDpQy3v9vwqma14g9-53" style="edgeStyle=orthogonalEdgeStyle;rounded=0;orthogonalLoop=1;jettySize=auto;html=1;entryX=0;entryY=0.5;entryDx=0;entryDy=0;dashed=1;" parent="1" source="1fhyDpQy3v9vwqma14g9-41" target="1fhyDpQy3v9vwqma14g9-1" edge="1">
          <mxGeometry relative="1" as="geometry" />
        </mxCell>
        <mxCell id="1fhyDpQy3v9vwqma14g9-41" value="«SGBD»&lt;br&gt;&lt;b&gt;Exames&lt;/b&gt;" style="html=1;dropTarget=0;whiteSpace=wrap;" parent="1" vertex="1">
          <mxGeometry x="-460" y="200" width="180" height="90" as="geometry" />
        </mxCell>
        <mxCell id="1fhyDpQy3v9vwqma14g9-42" value="" style="shape=module;jettyWidth=8;jettyHeight=4;" parent="1fhyDpQy3v9vwqma14g9-41" vertex="1">
          <mxGeometry x="1" width="20" height="20" relative="1" as="geometry">
            <mxPoint x="-27" y="7" as="offset" />
          </mxGeometry>
        </mxCell>
        <mxCell id="1fhyDpQy3v9vwqma14g9-43" value="«SGBD»&lt;br&gt;&lt;b&gt;Procedimentos&lt;br&gt;&lt;/b&gt;" style="html=1;dropTarget=0;whiteSpace=wrap;" parent="1" vertex="1">
          <mxGeometry x="-460" y="310" width="180" height="90" as="geometry" />
        </mxCell>
        <mxCell id="1fhyDpQy3v9vwqma14g9-44" value="" style="shape=module;jettyWidth=8;jettyHeight=4;" parent="1fhyDpQy3v9vwqma14g9-43" vertex="1">
          <mxGeometry x="1" width="20" height="20" relative="1" as="geometry">
            <mxPoint x="-27" y="7" as="offset" />
          </mxGeometry>
        </mxCell>
        <mxCell id="1fhyDpQy3v9vwqma14g9-45" value="«SGBD»&lt;br&gt;&lt;b&gt;Paciente&lt;br&gt;&lt;/b&gt;" style="html=1;dropTarget=0;whiteSpace=wrap;" parent="1" vertex="1">
          <mxGeometry x="-460" y="420" width="180" height="90" as="geometry" />
        </mxCell>
        <mxCell id="1fhyDpQy3v9vwqma14g9-46" value="" style="shape=module;jettyWidth=8;jettyHeight=4;" parent="1fhyDpQy3v9vwqma14g9-45" vertex="1">
          <mxGeometry x="1" width="20" height="20" relative="1" as="geometry">
            <mxPoint x="-27" y="7" as="offset" />
          </mxGeometry>
        </mxCell>
        <mxCell id="1fhyDpQy3v9vwqma14g9-47" value="«SGBD»&lt;br&gt;&lt;b&gt;Despesas&lt;br&gt;&lt;/b&gt;" style="html=1;dropTarget=0;whiteSpace=wrap;" parent="1" vertex="1">
          <mxGeometry x="-460" y="540" width="180" height="90" as="geometry" />
        </mxCell>
        <mxCell id="1fhyDpQy3v9vwqma14g9-48" value="" style="shape=module;jettyWidth=8;jettyHeight=4;" parent="1fhyDpQy3v9vwqma14g9-47" vertex="1">
          <mxGeometry x="1" width="20" height="20" relative="1" as="geometry">
            <mxPoint x="-27" y="7" as="offset" />
          </mxGeometry>
        </mxCell>
        <mxCell id="1fhyDpQy3v9vwqma14g9-49" value="«SGBD»&lt;br&gt;&lt;b&gt;Hotelaria&lt;br&gt;&lt;/b&gt;" style="html=1;dropTarget=0;whiteSpace=wrap;" parent="1" vertex="1">
          <mxGeometry x="-460" y="650" width="180" height="90" as="geometry" />
        </mxCell>
        <mxCell id="1fhyDpQy3v9vwqma14g9-50" value="" style="shape=module;jettyWidth=8;jettyHeight=4;" parent="1fhyDpQy3v9vwqma14g9-49" vertex="1">
          <mxGeometry x="1" width="20" height="20" relative="1" as="geometry">
            <mxPoint x="-27" y="7" as="offset" />
          </mxGeometry>
        </mxCell>
        <mxCell id="1fhyDpQy3v9vwqma14g9-51" value="«SGBD»&lt;br&gt;&lt;b&gt;Materiais&lt;br&gt;&lt;/b&gt;" style="html=1;dropTarget=0;whiteSpace=wrap;" parent="1" vertex="1">
          <mxGeometry x="-460" y="760" width="180" height="90" as="geometry" />
        </mxCell>
        <mxCell id="1fhyDpQy3v9vwqma14g9-52" value="" style="shape=module;jettyWidth=8;jettyHeight=4;" parent="1fhyDpQy3v9vwqma14g9-51" vertex="1">
          <mxGeometry x="1" width="20" height="20" relative="1" as="geometry">
            <mxPoint x="-27" y="7" as="offset" />
          </mxGeometry>
        </mxCell>
        <mxCell id="1fhyDpQy3v9vwqma14g9-54" style="edgeStyle=orthogonalEdgeStyle;rounded=0;orthogonalLoop=1;jettySize=auto;html=1;entryX=0;entryY=0.5;entryDx=0;entryDy=0;dashed=1;" parent="1" edge="1">
          <mxGeometry relative="1" as="geometry">
            <mxPoint x="-280" y="354.71" as="sourcePoint" />
            <mxPoint x="-30" y="354.71" as="targetPoint" />
          </mxGeometry>
        </mxCell>
        <mxCell id="1fhyDpQy3v9vwqma14g9-55" style="edgeStyle=orthogonalEdgeStyle;rounded=0;orthogonalLoop=1;jettySize=auto;html=1;entryX=0;entryY=0.5;entryDx=0;entryDy=0;dashed=1;" parent="1" edge="1">
          <mxGeometry relative="1" as="geometry">
            <mxPoint x="-280" y="464.71000000000004" as="sourcePoint" />
            <mxPoint x="-30" y="464.71000000000004" as="targetPoint" />
          </mxGeometry>
        </mxCell>
        <mxCell id="1fhyDpQy3v9vwqma14g9-56" style="edgeStyle=orthogonalEdgeStyle;rounded=0;orthogonalLoop=1;jettySize=auto;html=1;entryX=0;entryY=0.5;entryDx=0;entryDy=0;dashed=1;" parent="1" edge="1">
          <mxGeometry relative="1" as="geometry">
            <mxPoint x="-280" y="584.71" as="sourcePoint" />
            <mxPoint x="-30" y="584.71" as="targetPoint" />
          </mxGeometry>
        </mxCell>
        <mxCell id="1fhyDpQy3v9vwqma14g9-57" style="edgeStyle=orthogonalEdgeStyle;rounded=0;orthogonalLoop=1;jettySize=auto;html=1;entryX=0;entryY=0.5;entryDx=0;entryDy=0;dashed=1;" parent="1" edge="1">
          <mxGeometry relative="1" as="geometry">
            <mxPoint x="-280" y="694.71" as="sourcePoint" />
            <mxPoint x="-30" y="694.71" as="targetPoint" />
          </mxGeometry>
        </mxCell>
        <mxCell id="1fhyDpQy3v9vwqma14g9-58" style="edgeStyle=orthogonalEdgeStyle;rounded=0;orthogonalLoop=1;jettySize=auto;html=1;entryX=0;entryY=0.5;entryDx=0;entryDy=0;dashed=1;" parent="1" edge="1">
          <mxGeometry relative="1" as="geometry">
            <mxPoint x="-280" y="810" as="sourcePoint" />
            <mxPoint x="-30" y="810" as="targetPoint" />
          </mxGeometry>
        </mxCell>
      </root>
    </mxGraphModel>
  </diagram>
</mxfile>
